<svg width="19" height="17" viewBox="0 0 19 17" fill="none" xmlns="http://www.w3.org/2000/svg">
<path d="M17.3714 6.61111H14.9286V4.34444C14.9286 1.60839 13.1168 0 9.5 0C5.88186 0 4.07143 1.60839 4.07143 4.34444V6.61111H1.35714C0.606643 6.61111 0 7.22122 0 7.7435V15.1111C0 15.6296 0.580857 16.1868 1.29064 16.3455L2.91514 16.711C3.77679 16.8858 4.66711 16.9829 5.56429 17H13.4357C14.3326 16.9831 15.2225 16.8856 16.0835 16.7101L17.7066 16.3446C18.4178 16.1868 19 15.6296 19 15.1111V7.7435C19 7.22122 18.1206 6.61111 17.3714 6.61111ZM12.2143 6.61111H6.78571V3.96572C6.78571 2.601 7.86736 1.88889 9.5 1.88889C11.1326 1.88889 12.2143 2.601 12.2143 3.96572V6.61111Z" fill="white"/>
</svg>
