<svg width="18" height="17" viewBox="0 0 18 17" fill="none" xmlns="http://www.w3.org/2000/svg">
<path d="M3.9375 2.125H4.59562C4.712 1.81414 4.92759 1.54501 5.2127 1.35472C5.4978 1.16442 5.83838 1.06233 6.1875 1.0625H9.5625C9.91162 1.06233 10.2522 1.16442 10.5373 1.35472C10.8224 1.54501 11.038 1.81414 11.1544 2.125H11.8125C12.2601 2.125 12.6893 2.29291 13.0057 2.5918C13.3222 2.89068 13.5 3.29606 13.5 3.71875V5.3125H12.375V3.71875C12.375 3.57785 12.3157 3.44273 12.2102 3.3431C12.1048 3.24347 11.9617 3.1875 11.8125 3.1875H11.1544C11.038 3.49836 10.8224 3.76749 10.5373 3.95778C10.2522 4.14808 9.91162 4.25017 9.5625 4.25H6.1875C5.83838 4.25017 5.4978 4.14808 5.2127 3.95778C4.92759 3.76749 4.712 3.49836 4.59562 3.1875H3.9375C3.78832 3.1875 3.64524 3.24347 3.53975 3.3431C3.43426 3.44273 3.375 3.57785 3.375 3.71875V14.3438C3.375 14.4846 3.43426 14.6198 3.53975 14.7194C3.64524 14.819 3.78832 14.875 3.9375 14.875H6.876V15.9375H3.9375C3.48995 15.9375 3.06072 15.7696 2.74426 15.4707C2.42779 15.1718 2.25 14.7664 2.25 14.3438V3.71875C2.25 3.29606 2.42779 2.89068 2.74426 2.5918C3.06072 2.29291 3.48995 2.125 3.9375 2.125ZM6.1875 2.125C6.03832 2.125 5.89524 2.18097 5.78975 2.2806C5.68426 2.38023 5.625 2.51535 5.625 2.65625C5.625 2.79715 5.68426 2.93227 5.78975 3.0319C5.89524 3.13153 6.03832 3.1875 6.1875 3.1875H9.5625C9.71168 3.1875 9.85476 3.13153 9.96025 3.0319C10.0657 2.93227 10.125 2.79715 10.125 2.65625C10.125 2.51535 10.0657 2.38023 9.96025 2.2806C9.85476 2.18097 9.71168 2.125 9.5625 2.125H6.1875Z" fill="white"/>
<path d="M9.5625 6.375C9.11495 6.375 8.68572 6.54291 8.36926 6.8418C8.05279 7.14068 7.875 7.54606 7.875 7.96875V14.3438C7.875 14.7664 8.05279 15.1718 8.36926 15.4707C8.68572 15.7696 9.11495 15.9375 9.5625 15.9375H14.0625C14.5101 15.9375 14.9393 15.7696 15.2557 15.4707C15.5722 15.1718 15.75 14.7664 15.75 14.3438V7.96875C15.75 7.54606 15.5722 7.14068 15.2557 6.8418C14.9393 6.54291 14.5101 6.375 14.0625 6.375H9.5625Z" fill="white"/>
</svg>
